<svg xmlns="http://www.w3.org/2000/svg" width="800" height="450" viewBox="0 0 800 450" fill="none" stroke="#ff0055" stroke-width="1">
<path d="M 358,398 L 358,400 L 360,400 L 360,398 Z" />
<path d="M 679,366 L 679,368 L 681,368 L 681,366 Z" />
<path d="M 726,364 L 731,364 L 732,365 L 730,367 L 729,367 L 728,366 L 726,366 L 727,366 L 728,367 L 730,367 L 731,366 L 732,366 L 732,364 Z" />
<path d="M 700,361 L 699,362 L 700,361 L 701,362 L 701,363 L 701,361 Z" />
<path d="M 329,344 L 329,346 L 331,346 L 331,344 Z" />
<path d="M 43,344 L 43,346 L 45,346 L 45,344 Z" />
<path d="M 339,338 L 339,340 L 338,341 L 337,340 L 336,340 L 336,342 L 338,342 L 338,341 L 339,340 L 340,340 L 341,339 L 340,338 Z" />
<path d="M 348,332 L 349,332 L 350,333 L 349,334 L 348,334 L 347,335 L 346,334 L 345,334 L 345,336 L 344,337 L 343,336 L 342,336 L 342,337 L 343,338 L 345,336 L 347,336 L 347,335 L 348,334 L 350,334 L 350,332 Z" />
<path d="M 352,331 L 352,333 L 354,333 L 354,331 Z" />
<path d="M 356,329 L 356,331 L 358,331 L 358,330 L 357,329 Z" />
<path d="M 159,328 L 159,330 L 165,330 L 165,329 L 164,328 Z" />
<path d="M 182,327 L 182,329 L 184,329 L 184,327 Z" />
<path d="M 152,327 L 152,329 L 154,329 L 153,329 L 152,328 L 153,327 L 154,327 Z" />
<path d="M 364,326 L 363,327 L 363,328 L 363,327 L 364,326 L 365,327 L 365,328 L 365,327 Z" />
<path d="M 148,326 L 148,328 L 150,328 L 150,326 Z" />
<path d="M 476,325 L 476,326 L 477,327 L 478,326 L 478,325 Z" />
<path d="M 472,325 L 472,327 L 474,327 L 474,325 Z" />
<path d="M 468,325 L 468,327 L 469,327 L 470,326 L 470,325 Z" />
<path d="M 464,325 L 464,327 L 466,327 L 466,325 Z" />
<path d="M 141,325 L 141,327 L 143,327 L 143,325 Z" />
<path d="M 481,324 L 482,325 L 481,326 L 480,326 L 486,326 L 486,324 L 484,324 L 484,325 L 483,326 L 482,325 L 482,324 Z" />
<path d="M 441,324 L 441,326 L 456,326 L 457,327 L 458,327 L 458,326 L 459,325 L 461,325 L 455,325 L 454,326 L 453,325 L 453,324 L 453,325 L 452,326 L 451,325 L 451,324 Z" />
<path d="M 174,324 L 174,327 L 173,328 L 171,328 L 171,329 L 170,330 L 169,329 L 171,331 L 171,332 L 172,333 L 175,333 L 177,331 L 177,329 L 178,328 L 179,328 L 180,329 L 179,330 L 180,330 L 180,328 L 178,328 L 177,329 L 174,326 Z" />
<path d="M 492,323 L 493,324 L 492,325 L 493,325 L 493,323 Z" />
<path d="M 437,323 L 437,325 L 439,325 L 439,323 Z" />
<path d="M 430,323 L 430,325 L 435,325 L 435,323 Z" />
<path d="M 377,323 L 377,324 L 376,325 L 375,324 L 373,324 L 373,326 L 375,326 L 376,325 L 379,325 L 379,323 Z" />
<path d="M 196,323 L 196,325 L 198,325 L 198,323 Z" />
<path d="M 131,323 L 131,324 L 132,324 Z" />
<path d="M 422,322 L 422,324 L 424,324 L 424,323 L 425,322 L 426,323 L 426,324 L 428,324 L 428,322 Z" />
<path d="M 418,322 L 418,324 L 420,324 L 420,322 Z" />
<path d="M 414,322 L 414,323 L 415,324 L 416,323 L 416,322 Z" />
<path d="M 407,322 L 407,323 L 408,322 L 409,322 Z" />
<path d="M 403,322 L 403,323 L 405,323 L 405,322 L 404,323 Z" />
<path d="M 399,322 L 399,323 L 401,323 L 401,322 L 400,323 Z" />
<path d="M 384,322 L 384,324 L 393,324 L 394,323 L 394,322 L 392,322 L 393,322 L 394,323 L 393,324 L 391,324 L 390,323 L 390,322 Z" />
<path d="M 200,322 L 200,324 L 201,324 L 200,323 L 201,322 Z" />
<path d="M 203,321 L 203,323 L 205,323 L 205,322 L 204,321 Z" />
<path d="M 503,320 L 503,322 L 505,322 L 505,320 Z" />
<path d="M 206,320 L 207,320 L 208,321 L 207,322 L 208,322 L 208,320 Z" />
<path d="M 122,320 L 121,321 L 122,322 L 121,321 L 122,320 L 124,320 L 125,321 L 124,322 L 125,321 L 127,321 L 125,321 L 124,320 Z" />
<path d="M 115,319 L 114,320 L 114,326 L 114,320 L 115,319 L 116,319 Z" />
<path d="M 119,318 L 120,319 L 119,320 L 118,320 L 119,320 L 120,319 Z" />
<path d="M 514,317 L 514,319 L 516,319 L 516,317 Z" />
<path d="M 616,316 L 616,318 L 618,318 L 618,316 Z" />
<path d="M 612,316 L 612,318 L 614,318 L 614,316 Z" />
<path d="M 608,316 L 608,318 L 610,318 L 610,316 Z" />
<path d="M 620,315 L 620,317 L 622,317 L 622,315 Z" />
<path d="M 624,314 L 624,316 L 626,316 L 626,314 Z" />
<path d="M 597,314 L 597,315 L 598,316 L 599,316 L 599,314 Z" />
<path d="M 631,312 L 631,314 L 633,314 L 633,312 Z" />
<path d="M 594,312 L 595,313 L 594,314 L 593,314 L 595,314 L 595,312 Z" />
<path d="M 525,312 L 525,314 L 527,314 L 528,313 L 527,312 Z" />
<path d="M 635,311 L 635,313 L 637,313 L 636,313 L 635,312 L 636,311 Z" />
<path d="M 638,310 L 638,311 L 639,312 L 640,312 L 640,310 Z" />
<path d="M 67,310 L 66,311 L 67,312 L 69,312 L 70,313 L 72,313 L 71,313 L 70,312 L 71,311 L 72,311 L 70,311 L 69,310 Z" />
<path d="M 532,309 L 532,311 L 534,311 L 534,310 L 533,309 Z" />
<path d="M 645,308 L 644,309 L 642,309 L 642,311 L 643,311 L 644,310 L 647,310 L 647,308 Z" />
<path d="M 664,307 L 664,309 L 670,309 L 670,307 Z" />
<path d="M 587,307 L 586,308 L 586,309 L 588,309 L 590,311 L 590,312 L 590,311 L 588,309 L 588,308 Z" />
<path d="M 222,307 L 222,309 L 219,312 L 218,312 L 218,314 L 217,315 L 217,316 L 217,315 L 218,314 L 219,315 L 219,316 L 220,317 L 221,317 L 221,316 L 222,315 L 223,316 L 227,316 L 227,314 L 225,314 L 226,314 L 227,315 L 226,316 L 223,316 L 222,315 L 219,315 L 218,314 L 218,313 L 220,311 L 221,311 L 222,310 Z" />
<path d="M 672,306 L 672,308 L 673,308 L 672,307 L 673,306 Z" />
<path d="M 675,305 L 675,307 L 677,307 L 677,305 Z" />
<path d="M 584,305 L 583,306 L 583,307 L 584,307 L 585,306 L 585,305 Z" />
<path d="M 316,305 L 316,320 L 314,322 L 313,322 L 312,323 L 311,323 L 309,321 L 306,321 L 305,322 L 303,322 L 303,328 L 303,323 L 304,322 L 305,322 L 306,321 L 308,321 L 310,323 L 313,323 L 316,320 L 316,306 L 317,305 L 319,305 L 320,306 L 320,321 L 320,305 Z" />
<path d="M 136,305 L 136,322 L 135,323 L 134,323 L 134,326 L 135,325 L 136,325 L 137,326 L 139,326 L 139,324 L 137,324 L 136,323 Z" />
<path d="M 679,304 L 680,305 L 679,306 L 680,306 L 680,304 Z" />
<path d="M 727,303 L 728,304 L 728,305 L 729,305 L 728,304 L 729,303 Z" />
<path d="M 682,303 L 682,305 L 684,305 L 684,303 Z" />
<path d="M 581,303 L 580,304 L 581,305 L 582,304 L 582,303 Z" />
<path d="M 544,303 L 544,305 L 543,306 L 542,306 L 540,308 L 539,308 L 538,307 L 539,306 L 538,306 L 538,307 L 537,308 L 536,307 L 535,307 L 535,308 L 536,309 L 537,309 L 537,308 L 538,307 L 539,308 L 539,312 L 539,309 L 540,308 L 541,309 L 541,313 L 541,309 L 540,308 L 542,306 L 543,306 L 544,307 L 544,325 L 545,326 L 545,328 L 545,326 L 546,325 L 546,306 L 546,325 L 545,326 L 544,325 L 544,307 L 543,306 L 544,305 Z" />
<path d="M 504,303 L 504,310 L 503,311 L 501,311 L 501,320 L 500,321 L 499,321 L 499,323 L 501,323 L 501,312 L 502,311 L 504,311 L 504,304 L 505,303 L 510,303 Z" />
<path d="M 337,303 L 337,311 L 336,312 L 336,313 L 337,314 L 337,318 L 336,319 L 336,320 L 335,321 L 334,320 L 333,320 L 331,318 L 331,310 L 328,310 L 327,309 L 322,309 L 322,322 L 322,310 L 323,309 L 327,309 L 328,310 L 330,310 L 331,311 L 331,318 L 332,319 L 332,320 L 333,320 L 335,322 L 336,321 L 336,319 L 337,318 L 337,314 L 336,313 L 336,312 L 337,311 Z" />
<path d="M 76,303 L 76,310 L 74,312 L 74,314 L 75,314 L 76,315 L 76,342 L 76,316 L 77,315 L 78,316 L 78,343 L 77,344 L 76,344 L 76,346 L 79,346 L 79,344 L 78,343 L 78,315 L 79,314 L 79,311 L 78,310 L 78,303 L 78,309 L 77,310 L 76,309 Z" />
<path d="M 731,302 L 731,303 L 732,304 L 731,303 L 732,302 Z" />
<path d="M 692,301 L 690,303 L 691,303 L 691,302 L 692,301 L 693,302 L 693,303 L 695,303 L 695,302 L 696,301 L 697,301 L 698,302 L 697,303 L 698,303 L 698,301 Z" />
<path d="M 52,301 L 52,302 L 51,303 L 50,303 L 49,302 L 48,302 L 49,302 L 50,303 L 49,304 L 48,304 L 49,304 L 50,305 L 52,305 L 52,304 L 53,303 L 52,302 Z" />
<path d="M 737,299 L 737,300 L 738,301 L 739,301 L 739,299 Z" />
<path d="M 496,299 L 496,321 L 495,322 L 495,324 L 497,324 L 497,322 L 496,321 Z" />
<path d="M 84,299 L 84,311 L 83,312 L 81,312 L 83,312 L 84,313 L 84,320 L 84,315 L 86,313 L 87,313 L 88,314 L 89,313 L 90,313 L 89,313 L 88,312 L 89,311 L 91,311 L 92,312 L 96,312 L 97,311 L 101,311 L 102,312 L 101,313 L 98,313 L 100,313 L 101,314 L 104,314 L 105,315 L 107,315 L 107,313 L 106,313 L 105,312 L 102,312 L 101,311 L 97,311 L 96,310 L 94,310 L 96,310 L 97,311 L 96,312 L 92,312 L 91,311 L 92,310 L 91,311 L 89,311 L 88,310 L 88,301 L 88,310 L 87,311 L 86,311 L 85,312 L 84,311 L 84,300 L 85,299 L 86,300 L 86,299 Z" />
<path d="M 32,297 L 32,299 L 30,301 L 30,305 L 31,306 L 31,309 L 31,306 L 30,305 L 30,301 L 32,299 L 33,299 L 34,300 L 34,302 L 35,303 L 35,304 L 34,305 L 34,310 L 34,305 L 35,304 L 35,303 L 34,302 L 34,297 L 34,298 L 33,299 L 32,298 Z" />
<path d="M 744,296 L 744,297 L 742,299 L 741,298 L 741,299 L 743,299 L 743,298 L 744,297 L 745,298 L 746,298 L 745,298 L 744,297 L 745,296 L 746,296 Z" />
<path d="M 1,296 L 0,297 L 1,298 L 0,299 L 1,299 Z" />
<path d="M 573,295 L 572,296 L 573,297 L 574,297 L 575,298 L 575,299 L 576,300 L 577,299 L 579,301 L 578,302 L 579,302 L 579,300 L 577,298 L 576,298 L 575,297 L 573,297 L 572,296 L 573,295 L 574,295 Z" />
<path d="M 21,295 L 21,297 L 22,297 L 21,296 L 22,295 Z" />
<path d="M 751,292 L 751,294 L 750,295 L 749,294 L 748,294 L 748,296 L 750,296 L 750,295 L 751,294 L 753,294 L 753,292 Z" />
<path d="M 117,291 L 117,293 L 120,293 L 118,293 L 117,292 L 118,291 L 120,291 Z" />
<path d="M 569,290 L 569,291 L 568,292 L 567,291 L 567,292 L 568,292 L 569,291 Z" />
<path d="M 183,289 L 184,290 L 184,291 L 186,291 L 187,292 L 187,294 L 188,295 L 188,319 L 189,319 L 190,320 L 190,323 L 189,324 L 189,325 L 188,326 L 187,326 L 186,327 L 186,328 L 188,328 L 187,328 L 186,327 L 187,326 L 189,326 L 190,327 L 191,327 L 191,325 L 191,326 L 190,327 L 189,326 L 189,324 L 190,323 L 190,320 L 188,318 L 188,295 L 187,294 L 187,291 L 185,291 Z" />
<path d="M 203,286 L 211,286 L 212,287 L 211,288 L 201,288 L 200,289 L 193,289 L 193,292 L 193,290 L 194,289 L 200,289 L 201,288 L 211,288 L 212,289 L 212,317 L 210,319 L 210,321 L 211,321 L 213,319 L 214,319 L 215,320 L 215,329 L 217,329 L 217,319 L 218,318 L 217,318 L 217,328 L 216,329 L 215,328 L 215,320 L 214,319 L 213,319 L 212,318 L 212,289 L 213,288 L 213,287 L 212,287 L 211,286 Z" />
<path d="M 153,285 L 152,286 L 152,287 L 151,288 L 151,289 L 153,291 L 158,291 L 159,290 L 158,289 L 159,288 L 159,286 L 157,286 L 156,285 L 155,286 L 154,286 Z" />
<path d="M 764,284 L 764,286 L 765,286 L 766,285 L 765,284 Z" />
<path d="M 261,284 L 260,285 L 260,312 L 261,313 L 261,330 L 263,330 L 263,323 L 264,322 L 267,322 L 268,321 L 268,311 L 269,310 L 270,310 L 271,311 L 271,315 L 271,311 L 270,310 L 271,309 L 272,309 L 273,310 L 274,310 L 275,311 L 275,315 L 276,316 L 276,319 L 275,320 L 276,321 L 276,322 L 276,321 L 275,320 L 276,319 L 276,316 L 275,315 L 275,311 L 273,309 L 272,309 L 270,307 L 270,304 L 271,303 L 276,303 L 276,299 L 277,298 L 276,297 L 276,295 L 278,293 L 281,293 L 282,294 L 282,321 L 283,322 L 283,323 L 285,323 L 286,324 L 286,330 L 286,323 L 284,323 L 282,321 L 282,293 L 283,292 L 284,293 L 284,316 L 284,292 L 283,292 L 282,293 L 277,293 L 277,294 L 276,295 L 276,297 L 277,298 L 276,299 L 276,302 L 275,303 L 270,303 L 270,308 L 271,309 L 270,310 L 268,310 L 268,321 L 267,322 L 263,322 L 263,329 L 262,330 L 261,329 L 261,313 L 260,312 L 260,285 L 261,284 L 262,285 L 262,298 L 262,284 Z" />
<path d="M 670,283 L 669,284 L 670,283 L 671,284 L 671,298 L 671,283 Z" />
<path d="M 338,283 L 338,291 L 340,293 L 341,293 L 342,294 L 342,314 L 342,293 L 341,293 L 340,292 L 339,292 L 338,291 Z" />
<path d="M 280,282 L 279,283 L 279,291 L 279,283 L 280,282 L 281,283 L 281,291 L 281,282 Z" />
<path d="M 50,282 L 50,283 L 49,284 L 48,284 L 48,292 L 49,293 L 49,297 L 48,298 L 49,299 L 49,300 L 49,299 L 48,298 L 49,297 L 49,293 L 48,292 L 49,291 L 48,290 L 48,285 L 49,284 L 50,285 L 50,288 L 51,288 L 52,289 L 52,291 L 54,293 L 52,291 L 52,282 Z" />
<path d="M 38,282 L 39,283 L 39,297 L 38,298 L 36,298 L 38,298 L 39,299 L 39,300 L 39,299 L 38,298 L 39,297 L 39,282 Z" />
<path d="M 768,281 L 767,282 L 767,283 L 767,282 L 768,281 L 769,282 L 769,283 L 769,282 Z" />
<path d="M 42,281 L 41,282 L 41,319 L 41,303 L 42,302 L 44,302 L 43,301 L 44,300 L 45,300 L 44,299 L 44,298 L 43,297 L 43,296 L 44,295 L 44,292 L 44,295 L 43,296 L 42,296 L 41,295 L 41,282 Z" />
<path d="M 485,280 L 489,280 L 490,281 L 489,282 L 485,282 L 490,282 L 490,280 Z" />
<path d="M 770,279 L 770,280 L 771,281 L 772,281 L 772,279 Z" />
<path d="M 563,279 L 563,284 L 562,285 L 562,288 L 561,289 L 561,290 L 559,292 L 558,292 L 558,293 L 557,294 L 555,294 L 555,295 L 556,296 L 557,296 L 557,294 L 558,293 L 559,294 L 560,294 L 560,293 L 559,292 L 560,291 L 562,291 L 563,292 L 563,334 L 563,291 L 562,291 L 561,290 L 561,289 L 562,288 L 563,289 L 564,289 L 565,290 L 565,334 L 565,290 L 567,288 L 567,285 L 565,283 L 565,279 Z" />
<path d="M 394,279 L 398,279 L 399,280 L 399,288 L 404,288 L 404,280 L 405,279 L 406,279 L 407,280 L 407,294 L 408,295 L 407,296 L 407,319 L 408,319 L 409,320 L 411,320 L 412,319 L 417,319 L 418,320 L 420,320 L 422,318 L 423,318 L 423,312 L 424,311 L 428,311 L 429,312 L 429,320 L 431,320 L 431,317 L 432,316 L 432,305 L 431,304 L 431,302 L 432,301 L 432,289 L 433,288 L 440,288 L 441,287 L 442,287 L 443,286 L 443,283 L 444,282 L 451,282 L 452,283 L 452,285 L 454,285 L 455,286 L 461,286 L 462,287 L 462,299 L 468,299 L 463,299 L 462,298 L 462,286 L 455,286 L 454,285 L 455,284 L 456,284 L 455,284 L 454,283 L 454,281 L 453,281 L 452,282 L 443,282 L 442,281 L 441,281 L 441,287 L 440,288 L 432,288 L 431,287 L 430,287 L 430,300 L 430,288 L 431,287 L 432,288 L 432,301 L 431,302 L 418,302 L 417,301 L 417,300 L 411,294 L 410,294 L 409,293 L 409,292 L 409,293 L 418,302 L 430,302 L 431,303 L 430,304 L 417,304 L 407,294 L 407,280 L 406,279 L 405,279 L 404,280 L 399,280 L 398,279 Z" />
<path d="M 119,278 L 119,280 L 125,280 L 125,278 Z" />
<path d="M 774,276 L 774,278 L 776,278 L 776,277 L 775,276 Z" />
<path d="M 70,276 L 69,277 L 69,287 L 68,288 L 63,288 L 63,299 L 62,300 L 61,300 L 63,300 L 63,289 L 64,288 L 68,288 L 69,289 L 69,299 L 69,277 L 70,276 L 71,277 L 71,299 L 71,278 L 72,277 L 71,277 Z" />
<path d="M 56,276 L 55,277 L 49,277 L 48,278 L 49,277 L 55,277 L 56,278 L 56,303 L 56,277 L 57,276 L 58,277 L 58,305 L 57,306 L 57,308 L 56,309 L 56,312 L 56,309 L 57,308 L 58,309 L 58,310 L 58,309 L 60,307 L 61,307 L 60,307 L 58,305 L 58,276 Z" />
<path d="M 79,275 L 80,276 L 80,283 L 79,284 L 78,283 L 78,277 L 77,277 L 76,276 L 78,278 L 78,283 L 79,284 L 80,283 L 81,284 L 86,284 L 87,285 L 87,293 L 88,294 L 88,295 L 96,295 L 97,296 L 97,308 L 98,309 L 99,309 L 99,306 L 100,305 L 102,305 L 103,306 L 103,309 L 104,308 L 105,308 L 106,307 L 107,308 L 110,308 L 110,304 L 110,307 L 109,308 L 107,308 L 105,306 L 105,305 L 105,307 L 104,308 L 103,307 L 103,305 L 100,305 L 99,304 L 99,308 L 98,309 L 97,308 L 97,295 L 98,294 L 99,295 L 99,294 L 98,294 L 97,293 L 91,293 L 97,293 L 98,294 L 97,295 L 90,295 L 89,294 L 89,283 L 88,283 L 87,284 L 81,284 L 80,283 L 80,276 Z" />
<path d="M 518,270 L 518,333 L 518,316 L 519,315 L 520,316 L 520,331 L 520,315 L 519,315 L 518,314 Z" />
<path d="M 783,269 L 783,270 L 785,272 L 784,273 L 783,273 L 783,327 L 783,274 L 784,273 L 785,274 L 785,327 L 785,271 L 784,271 L 783,270 L 784,269 L 785,269 Z" />
<path d="M 533,266 L 533,267 L 534,266 L 535,267 L 535,266 Z" />
<path d="M 25,266 L 25,268 L 24,269 L 24,270 L 24,269 L 25,268 L 27,268 L 27,266 Z" />
<path d="M 188,265 L 189,266 L 189,290 L 189,266 Z" />
<path d="M 532,261 L 532,262 L 533,261 L 534,262 L 534,261 Z" />
<path d="M 186,258 L 186,266 L 187,267 L 187,280 L 186,281 L 183,281 L 186,281 L 187,282 L 187,288 L 186,289 L 184,287 L 183,287 L 184,287 L 186,289 L 187,289 L 187,267 L 186,266 L 186,259 L 187,258 Z" />
<path d="M 118,257 L 118,258 L 117,259 L 124,259 L 119,259 L 118,258 L 119,257 L 125,257 Z" />
<path d="M 541,256 L 541,303 L 542,304 L 541,303 L 541,257 L 542,256 L 544,258 L 544,301 L 544,257 L 543,257 L 542,256 Z" />
<path d="M 483,251 L 482,252 L 482,258 L 481,259 L 481,260 L 481,259 L 482,258 L 482,252 L 483,251 L 495,251 L 496,252 L 495,253 L 484,253 L 484,258 L 486,258 L 487,259 L 486,260 L 483,260 L 483,261 L 482,262 L 482,266 L 481,267 L 481,290 L 480,291 L 479,291 L 478,292 L 474,292 L 469,297 L 465,297 L 464,296 L 464,286 L 464,297 L 469,297 L 470,298 L 472,298 L 476,294 L 478,294 L 479,293 L 480,293 L 481,294 L 480,295 L 480,318 L 481,319 L 480,320 L 480,321 L 482,319 L 482,308 L 483,307 L 487,307 L 487,305 L 484,305 L 482,303 L 482,296 L 483,295 L 490,295 L 482,295 L 480,293 L 479,293 L 478,292 L 479,291 L 481,291 L 483,293 L 489,293 L 483,293 L 481,291 L 481,267 L 482,266 L 483,267 L 483,271 L 484,272 L 483,273 L 483,290 L 483,288 L 484,287 L 490,287 L 490,285 L 484,285 L 483,284 L 483,274 L 484,273 L 490,273 L 490,271 L 484,271 L 483,270 L 483,267 L 482,266 L 482,262 L 484,260 L 487,260 L 487,259 L 486,258 L 485,258 L 484,257 L 484,254 L 485,253 L 496,253 L 496,251 Z" />
<path d="M 348,251 L 348,252 L 349,252 L 350,253 L 351,253 L 353,255 L 354,255 L 356,257 L 357,257 L 359,259 L 360,259 L 362,261 L 363,261 L 366,264 L 367,264 L 369,266 L 370,266 L 373,269 L 374,269 L 377,272 L 378,272 L 380,274 L 381,274 L 385,278 L 386,278 L 389,281 L 390,281 L 391,282 L 391,311 L 391,282 L 389,280 L 388,280 L 385,277 L 384,277 L 381,274 L 380,274 L 377,271 L 376,271 L 374,269 L 373,269 L 370,266 L 369,266 L 366,263 L 365,263 L 363,261 L 362,261 L 360,259 L 359,259 L 357,257 L 356,257 L 354,255 L 353,255 L 351,253 L 350,253 Z" />
<path d="M 595,250 L 596,251 L 595,252 L 595,263 L 596,264 L 595,265 L 595,272 L 596,273 L 596,274 L 595,275 L 595,302 L 595,281 L 596,280 L 597,281 L 597,301 L 597,281 L 598,280 L 599,280 L 600,281 L 600,301 L 600,279 L 601,278 L 602,279 L 603,278 L 604,278 L 603,278 L 602,277 L 601,278 L 600,277 L 600,251 L 600,277 L 599,278 L 598,277 L 598,250 L 598,278 L 596,280 L 595,279 L 595,275 L 596,274 L 596,273 L 595,272 L 595,265 L 596,264 L 595,263 L 595,252 L 596,251 Z" />
<path d="M 349,249 L 351,251 L 352,251 L 354,253 L 355,253 L 357,255 L 358,255 L 360,257 L 361,257 L 363,259 L 364,259 L 366,261 L 367,261 L 370,264 L 371,264 L 374,267 L 375,267 L 377,269 L 378,269 L 381,272 L 382,272 L 385,275 L 386,275 L 389,278 L 390,278 L 393,281 L 393,317 L 392,318 L 391,318 L 390,319 L 388,317 L 388,315 L 384,315 L 382,313 L 382,305 L 376,305 L 376,313 L 374,315 L 373,315 L 372,316 L 368,316 L 366,314 L 366,313 L 359,313 L 357,315 L 357,322 L 356,323 L 352,323 L 350,321 L 349,321 L 348,320 L 348,316 L 349,315 L 349,311 L 348,310 L 348,308 L 349,307 L 349,302 L 348,301 L 348,300 L 347,299 L 347,298 L 346,297 L 346,253 L 346,297 L 345,298 L 345,300 L 344,301 L 345,300 L 346,301 L 346,325 L 346,301 L 347,300 L 349,302 L 349,307 L 348,308 L 348,310 L 349,311 L 349,315 L 348,316 L 348,320 L 349,321 L 348,322 L 348,325 L 350,325 L 350,324 L 349,325 L 348,324 L 348,322 L 349,321 L 350,321 L 352,323 L 357,323 L 357,316 L 358,315 L 358,314 L 359,313 L 365,313 L 367,315 L 367,316 L 373,316 L 375,314 L 376,314 L 376,306 L 377,305 L 381,305 L 382,306 L 382,314 L 383,314 L 384,315 L 387,315 L 388,316 L 388,318 L 389,318 L 390,319 L 391,318 L 392,318 L 393,317 L 393,281 L 391,279 L 393,277 L 406,277 L 392,277 L 392,278 L 391,279 L 389,277 L 388,277 L 386,275 L 385,275 L 382,272 L 381,272 L 378,269 L 377,269 L 374,266 L 373,266 L 370,263 L 369,263 L 367,261 L 366,261 L 364,259 L 363,259 L 361,257 L 360,257 L 358,255 L 357,255 L 355,253 L 354,253 L 352,251 L 351,251 Z" />
<path d="M 589,248 L 589,286 L 590,286 L 591,287 L 591,307 L 591,279 L 592,278 L 593,279 L 593,282 L 593,250 L 593,277 L 592,278 L 591,277 L 591,248 Z" />
<path d="M 344,248 L 344,250 L 346,250 L 347,249 L 347,248 Z" />
<path d="M 530,242 L 530,244 L 532,244 L 532,242 Z" />
<path d="M 10,241 L 10,263 L 11,263 L 12,264 L 12,293 L 12,264 L 11,263 L 12,262 L 13,262 L 14,263 L 14,291 L 14,263 L 12,261 L 12,241 Z" />
<path d="M 3,241 L 3,298 L 7,298 L 6,297 L 7,296 L 8,296 L 9,297 L 19,297 L 19,295 L 15,295 L 14,294 L 13,295 L 13,296 L 12,297 L 9,297 L 8,296 L 6,296 L 5,295 L 5,241 L 5,295 L 4,296 L 3,295 Z" />
<path d="M 692,240 L 693,241 L 693,244 L 692,245 L 693,245 L 693,240 Z" />
<path d="M 681,240 L 681,255 L 680,256 L 676,256 L 675,255 L 675,254 L 673,254 L 673,276 L 672,277 L 670,277 L 672,277 L 673,278 L 672,279 L 668,279 L 667,278 L 667,291 L 666,292 L 665,291 L 665,279 L 665,292 L 667,292 L 667,280 L 668,279 L 672,279 L 673,278 L 674,278 L 675,277 L 675,257 L 676,256 L 680,256 L 681,257 L 681,282 Z" />
<path d="M 648,237 L 647,238 L 635,238 L 635,254 L 634,255 L 627,255 L 627,302 L 627,290 L 628,289 L 627,288 L 627,287 L 628,286 L 633,286 L 628,286 L 627,285 L 627,284 L 628,283 L 636,283 L 628,283 L 627,282 L 627,281 L 628,280 L 637,280 L 628,280 L 627,279 L 628,278 L 633,278 L 634,277 L 637,277 L 634,277 L 633,278 L 628,278 L 627,277 L 627,276 L 628,275 L 637,275 L 628,275 L 627,274 L 627,273 L 628,272 L 638,272 L 639,271 L 645,271 L 639,271 L 638,272 L 628,272 L 627,271 L 627,270 L 628,269 L 646,269 L 628,269 L 627,268 L 627,267 L 628,266 L 646,266 L 628,266 L 627,265 L 628,264 L 647,264 L 628,264 L 627,263 L 627,262 L 628,261 L 647,261 L 628,261 L 627,260 L 627,259 L 628,258 L 647,258 L 628,258 L 627,257 L 627,256 L 628,255 L 634,255 L 635,254 L 636,255 L 647,255 L 647,252 L 646,253 L 636,253 L 635,252 L 635,239 L 636,238 L 647,238 L 648,239 L 648,243 L 647,244 L 639,244 L 638,245 L 637,244 L 638,245 L 639,244 L 648,244 Z" />
<path d="M 530,237 L 530,239 L 535,239 L 536,238 L 536,237 Z" />
<path d="M 636,229 L 635,230 L 636,229 L 640,229 Z" />
<path d="M 521,229 L 520,230 L 520,313 L 520,232 L 521,231 L 537,231 L 537,229 L 532,229 L 533,229 L 534,230 L 533,231 L 521,231 L 520,230 Z" />
<path d="M 766,225 L 766,246 L 765,247 L 765,251 L 764,252 L 762,252 L 764,252 L 765,251 L 765,247 L 766,246 L 768,246 L 768,225 Z" />
<path d="M 33,221 L 33,246 L 32,247 L 32,254 L 31,255 L 29,255 L 29,257 L 28,258 L 29,259 L 29,266 L 30,267 L 30,287 L 31,288 L 31,295 L 30,296 L 26,296 L 25,297 L 24,297 L 26,297 L 27,298 L 29,298 L 28,297 L 29,296 L 30,296 L 32,294 L 31,293 L 31,290 L 32,289 L 30,287 L 30,281 L 31,280 L 33,280 L 34,279 L 35,280 L 35,288 L 34,289 L 34,295 L 34,289 L 35,288 L 35,280 L 34,279 L 34,277 L 35,276 L 35,260 L 34,259 L 34,255 L 35,254 L 35,249 L 34,248 L 34,247 L 33,246 Z" />
<path d="M 688,219 L 688,238 L 687,239 L 686,239 L 687,239 L 688,240 L 688,254 L 687,255 L 687,256 L 688,257 L 688,262 L 687,263 L 687,268 L 688,269 L 688,272 L 687,273 L 687,276 L 688,277 L 688,285 L 687,286 L 687,287 L 687,286 L 688,285 L 688,277 L 687,276 L 687,273 L 688,272 L 688,269 L 687,268 L 687,263 L 688,262 L 688,257 L 687,256 L 687,255 L 688,254 L 688,220 L 689,219 L 690,220 L 690,285 L 690,219 Z" />
<path d="M 520,217 L 520,226 L 521,227 L 531,227 L 521,227 L 520,226 L 520,218 L 521,217 L 538,217 L 539,218 L 539,221 L 539,217 Z" />
<path d="M 518,215 L 518,266 L 516,268 L 516,269 L 515,270 L 515,271 L 514,272 L 514,273 L 513,274 L 513,276 L 512,277 L 509,277 L 508,278 L 503,278 L 502,279 L 502,280 L 501,281 L 501,282 L 500,283 L 500,284 L 499,285 L 499,286 L 496,289 L 496,290 L 498,290 L 501,287 L 501,286 L 502,285 L 502,284 L 503,283 L 503,282 L 505,280 L 508,280 L 509,279 L 511,279 L 512,280 L 512,317 L 511,318 L 511,320 L 512,321 L 512,327 L 512,320 L 511,319 L 512,318 L 512,280 L 513,279 L 514,280 L 514,315 L 514,278 L 515,277 L 515,275 L 516,274 L 516,273 L 516,274 L 515,275 L 514,274 L 514,272 L 515,271 L 515,270 L 517,268 L 517,267 L 518,266 L 518,216 L 519,215 L 540,215 L 541,216 L 541,254 L 542,254 L 541,253 L 541,216 L 540,215 Z" />
<path d="M 459,215 L 458,216 L 424,216 L 424,219 L 438,219 L 438,218 L 437,219 L 425,219 L 424,218 L 424,217 L 425,216 L 459,216 Z" />
<path d="M 208,214 L 209,214 L 210,215 L 209,216 L 208,216 L 210,216 L 210,215 L 209,214 Z" />
<path d="M 698,212 L 698,219 L 700,219 L 700,212 Z" />
<path d="M 424,211 L 424,214 L 428,214 L 429,213 L 434,213 L 435,214 L 438,214 L 439,213 L 477,213 L 477,211 L 438,211 L 438,212 L 439,213 L 438,214 L 435,214 L 434,213 L 435,212 L 435,211 Z" />
<path d="M 604,209 L 604,249 L 603,250 L 602,249 L 602,230 L 602,249 L 603,250 L 602,251 L 602,275 L 602,251 L 603,250 L 604,250 Z" />
<path d="M 642,203 L 641,204 L 640,204 L 640,226 L 639,227 L 634,227 L 633,228 L 633,252 L 632,253 L 625,253 L 625,302 L 625,254 L 626,253 L 633,253 L 633,229 L 635,227 L 640,227 L 640,205 L 641,204 L 642,205 L 642,227 L 643,226 L 647,226 L 648,227 L 648,229 L 647,230 L 643,230 L 642,229 L 643,230 L 647,230 L 648,231 L 647,232 L 635,232 L 635,236 L 638,236 L 639,235 L 648,235 L 648,223 L 647,222 L 645,222 L 644,221 L 645,220 L 644,221 L 643,221 L 642,220 L 642,219 L 643,218 L 647,218 L 648,219 L 648,220 L 648,219 L 647,218 L 643,218 L 642,217 L 642,215 L 643,214 L 646,214 L 643,214 L 642,213 L 642,211 L 643,210 L 648,210 L 649,211 L 648,212 L 646,212 L 647,212 L 648,213 L 648,216 L 648,214 L 649,213 L 648,212 L 649,211 L 649,208 L 648,207 L 643,207 L 642,206 L 643,205 L 649,205 L 649,204 L 648,203 Z" />
<path d="M 215,182 L 214,183 L 214,184 L 267,184 L 267,183 L 266,182 Z" />
<path d="M 571,175 L 571,180 L 570,181 L 570,187 L 569,188 L 569,194 L 568,195 L 568,201 L 567,202 L 567,208 L 566,209 L 566,215 L 567,216 L 567,222 L 566,223 L 565,222 L 565,217 L 565,222 L 566,223 L 566,229 L 565,230 L 564,229 L 564,224 L 564,229 L 565,230 L 565,236 L 564,237 L 563,236 L 563,231 L 563,236 L 564,237 L 564,244 L 563,245 L 562,244 L 562,238 L 562,244 L 561,245 L 561,251 L 560,252 L 560,258 L 559,259 L 559,266 L 558,267 L 558,270 L 557,271 L 556,270 L 556,268 L 555,267 L 555,265 L 554,264 L 554,263 L 553,262 L 553,261 L 552,261 L 549,258 L 548,258 L 546,256 L 546,212 L 544,212 L 544,255 L 544,213 L 545,212 L 546,213 L 546,257 L 547,257 L 549,259 L 550,259 L 554,263 L 554,264 L 553,265 L 549,261 L 548,261 L 546,259 L 547,260 L 546,261 L 546,299 L 546,261 L 547,260 L 548,261 L 549,261 L 553,265 L 553,268 L 554,269 L 554,270 L 555,271 L 555,273 L 557,275 L 557,276 L 559,276 L 559,274 L 560,273 L 560,267 L 561,266 L 561,259 L 562,258 L 562,252 L 563,251 L 563,245 L 564,244 L 564,237 L 565,236 L 565,230 L 566,229 L 566,223 L 567,222 L 567,216 L 568,215 L 568,209 L 569,208 L 569,202 L 570,201 L 570,195 L 571,194 L 571,188 L 572,187 L 572,181 L 571,180 L 571,176 L 572,175 Z" />
<path d="M 113,173 L 113,238 L 112,239 L 112,314 L 111,315 L 109,315 L 111,315 L 112,316 L 112,326 L 112,319 L 114,317 L 116,317 L 115,317 L 114,316 L 114,240 L 115,239 L 132,239 L 133,240 L 133,244 L 132,245 L 116,245 L 116,247 L 132,247 L 130,247 L 129,246 L 130,245 L 132,245 L 133,244 L 133,239 L 114,239 L 113,238 Z" />
<path d="M 434,136 L 434,138 L 436,138 L 436,137 L 435,136 Z" />
<path d="M 265,134 L 265,135 L 266,134 L 267,135 L 267,134 Z" />
<path d="M 743,129 L 743,135 L 740,138 L 740,139 L 738,141 L 738,142 L 737,143 L 737,146 L 736,147 L 736,155 L 735,156 L 735,159 L 731,163 L 731,175 L 730,176 L 730,189 L 729,190 L 728,190 L 727,189 L 727,183 L 726,182 L 725,182 L 724,181 L 723,181 L 721,179 L 721,171 L 720,170 L 718,170 L 717,169 L 717,155 L 715,155 L 715,169 L 714,170 L 712,170 L 712,171 L 713,170 L 715,170 L 715,156 L 716,155 L 717,156 L 717,170 L 720,170 L 721,171 L 721,179 L 722,180 L 722,181 L 724,181 L 725,182 L 724,183 L 721,183 L 720,182 L 720,181 L 719,180 L 719,172 L 714,172 L 713,173 L 713,183 L 711,185 L 711,190 L 710,191 L 709,190 L 709,184 L 711,182 L 711,173 L 711,182 L 709,184 L 709,188 L 708,189 L 695,189 L 694,190 L 693,189 L 693,186 L 692,185 L 692,180 L 691,179 L 691,173 L 690,172 L 690,169 L 690,172 L 689,173 L 688,172 L 688,169 L 685,169 L 683,167 L 683,163 L 684,162 L 685,163 L 685,166 L 686,167 L 689,167 L 686,167 L 685,166 L 685,163 L 684,162 L 684,157 L 683,156 L 683,152 L 683,156 L 682,157 L 681,156 L 681,152 L 680,151 L 680,150 L 681,149 L 682,150 L 682,149 L 675,149 L 674,150 L 674,153 L 675,154 L 675,159 L 674,160 L 673,159 L 671,161 L 670,160 L 670,158 L 671,157 L 672,157 L 673,156 L 673,155 L 670,158 L 670,160 L 669,161 L 669,165 L 668,166 L 668,169 L 667,170 L 667,174 L 666,175 L 666,178 L 665,179 L 665,182 L 666,183 L 666,187 L 665,188 L 664,187 L 664,184 L 664,187 L 663,188 L 663,192 L 662,193 L 662,209 L 663,210 L 663,222 L 663,210 L 664,209 L 664,193 L 665,192 L 665,188 L 666,187 L 666,183 L 667,182 L 667,179 L 668,178 L 668,175 L 669,174 L 669,170 L 670,169 L 670,166 L 671,165 L 671,161 L 672,160 L 675,160 L 675,154 L 676,153 L 676,152 L 677,151 L 680,151 L 681,152 L 681,156 L 682,157 L 682,162 L 683,163 L 683,168 L 684,169 L 687,169 L 688,170 L 688,172 L 689,173 L 689,178 L 689,173 L 690,172 L 691,173 L 691,179 L 690,180 L 690,185 L 691,186 L 691,190 L 693,192 L 693,218 L 694,219 L 693,220 L 694,220 L 694,219 L 695,218 L 695,217 L 695,218 L 694,219 L 693,218 L 693,191 L 695,189 L 708,189 L 709,190 L 708,191 L 696,191 L 695,192 L 696,191 L 708,191 L 709,192 L 709,213 L 710,213 L 711,212 L 711,185 L 713,183 L 713,173 L 714,172 L 718,172 L 719,173 L 719,180 L 720,181 L 720,182 L 721,183 L 724,183 L 725,184 L 725,190 L 726,191 L 726,192 L 729,192 L 730,193 L 730,243 L 730,193 L 731,192 L 732,193 L 732,237 L 732,193 L 731,192 L 732,191 L 732,176 L 731,175 L 731,163 L 735,159 L 735,156 L 736,155 L 737,156 L 737,160 L 733,164 L 733,174 L 733,164 L 735,162 L 736,162 L 736,161 L 737,160 L 737,156 L 738,155 L 738,147 L 739,146 L 739,144 L 741,142 L 741,141 L 742,140 L 742,139 L 742,140 L 741,141 L 741,142 L 739,144 L 739,146 L 738,147 L 737,146 L 737,143 L 739,141 L 739,140 L 740,139 L 740,138 L 741,137 L 742,137 L 742,136 L 743,135 L 743,130 L 744,129 L 745,130 L 745,134 L 745,129 Z" />
<path d="M 643,115 L 643,129 L 642,130 L 641,130 L 640,131 L 640,133 L 639,134 L 639,150 L 638,151 L 637,151 L 635,153 L 635,155 L 634,156 L 634,161 L 633,162 L 632,162 L 630,164 L 629,163 L 629,147 L 627,147 L 627,168 L 626,169 L 626,172 L 627,173 L 627,180 L 626,181 L 625,180 L 625,174 L 625,180 L 624,181 L 623,181 L 622,182 L 621,182 L 620,183 L 618,181 L 618,180 L 617,179 L 617,178 L 616,177 L 616,175 L 615,174 L 615,173 L 614,172 L 614,171 L 613,170 L 613,169 L 612,168 L 612,167 L 611,166 L 611,165 L 610,164 L 610,163 L 608,163 L 608,167 L 607,168 L 607,176 L 606,177 L 606,185 L 607,186 L 607,189 L 606,190 L 606,195 L 606,190 L 607,189 L 607,186 L 608,185 L 608,177 L 609,176 L 609,169 L 609,176 L 608,177 L 607,176 L 607,168 L 608,167 L 608,164 L 609,163 L 610,164 L 610,165 L 611,166 L 611,167 L 613,169 L 613,171 L 612,172 L 611,171 L 611,170 L 611,171 L 612,172 L 612,173 L 613,174 L 613,176 L 614,177 L 614,178 L 615,179 L 615,180 L 616,181 L 616,182 L 617,183 L 617,184 L 618,185 L 621,185 L 622,184 L 623,184 L 624,183 L 625,183 L 626,182 L 626,181 L 627,180 L 627,173 L 628,172 L 628,169 L 631,166 L 632,166 L 636,162 L 636,157 L 636,162 L 633,165 L 632,165 L 630,167 L 629,167 L 629,168 L 628,169 L 627,168 L 627,148 L 628,147 L 629,148 L 629,163 L 630,164 L 631,163 L 632,163 L 634,161 L 634,156 L 635,155 L 635,153 L 636,152 L 637,152 L 638,153 L 637,154 L 637,155 L 639,153 L 640,153 L 638,153 L 637,152 L 638,151 L 639,151 L 639,134 L 640,133 L 641,134 L 641,151 L 641,134 L 643,132 L 645,132 L 646,133 L 646,160 L 648,162 L 648,163 L 649,163 L 650,164 L 650,177 L 649,178 L 650,179 L 650,180 L 655,180 L 656,181 L 656,204 L 657,204 L 656,203 L 656,181 L 655,180 L 651,180 L 650,179 L 650,164 L 651,163 L 652,164 L 652,178 L 656,178 L 657,179 L 657,178 L 653,178 L 652,177 L 652,164 L 651,163 L 651,162 L 648,159 L 648,132 L 648,159 L 651,162 L 651,163 L 650,164 L 646,160 L 646,132 L 642,132 L 642,133 L 641,134 L 640,133 L 640,131 L 641,130 L 647,130 L 646,130 L 645,129 L 645,115 Z" />
<path d="M 42,115 L 42,117 L 44,117 L 44,115 Z" />
<path d="M 774,95 L 774,188 L 773,189 L 770,189 L 769,190 L 769,193 L 768,194 L 764,194 L 763,193 L 763,191 L 762,190 L 762,182 L 761,181 L 761,178 L 756,173 L 756,172 L 755,171 L 755,170 L 755,172 L 754,173 L 753,172 L 753,169 L 754,168 L 754,166 L 753,165 L 753,163 L 752,162 L 752,159 L 751,158 L 751,156 L 750,155 L 750,153 L 749,152 L 749,149 L 748,148 L 748,146 L 747,145 L 747,143 L 746,142 L 746,139 L 745,138 L 745,136 L 745,138 L 744,139 L 744,142 L 745,143 L 745,145 L 746,146 L 746,148 L 746,146 L 747,145 L 748,146 L 748,148 L 749,149 L 749,152 L 748,153 L 747,152 L 747,150 L 747,152 L 748,153 L 748,155 L 749,156 L 749,158 L 750,159 L 750,162 L 751,163 L 751,165 L 752,166 L 752,168 L 753,169 L 753,172 L 754,173 L 754,174 L 759,179 L 759,181 L 760,182 L 760,190 L 761,191 L 761,196 L 769,196 L 770,195 L 770,194 L 771,193 L 771,192 L 772,191 L 773,191 L 774,192 L 774,268 L 774,192 L 775,191 L 776,192 L 776,271 L 776,192 L 777,191 L 778,191 L 779,192 L 779,194 L 780,195 L 780,196 L 781,197 L 781,198 L 782,199 L 782,201 L 784,203 L 785,203 L 786,204 L 788,204 L 789,205 L 790,205 L 791,206 L 793,206 L 793,204 L 792,204 L 791,203 L 790,203 L 789,202 L 787,202 L 786,201 L 785,201 L 784,200 L 784,199 L 783,198 L 783,196 L 782,195 L 782,194 L 781,193 L 781,192 L 780,191 L 780,189 L 777,189 L 776,188 L 776,96 L 775,95 Z" />
<path d="M 527,94 L 527,96 L 526,97 L 526,100 L 526,97 L 527,96 Z" />
<path d="M 319,93 L 319,95 L 321,95 L 321,93 Z" />
<path d="M 144,93 L 144,183 L 145,184 L 144,185 L 145,184 L 148,187 L 148,188 L 150,190 L 150,191 L 151,192 L 151,193 L 152,194 L 152,196 L 151,197 L 150,196 L 150,195 L 149,194 L 149,193 L 148,192 L 148,191 L 146,189 L 146,188 L 145,187 L 144,188 L 144,290 L 144,188 L 145,187 L 146,188 L 146,189 L 147,190 L 147,191 L 149,193 L 149,194 L 150,195 L 150,196 L 151,197 L 151,199 L 152,200 L 152,202 L 153,203 L 153,205 L 154,206 L 154,208 L 159,213 L 159,231 L 160,232 L 160,234 L 159,235 L 159,279 L 158,280 L 159,281 L 159,283 L 160,284 L 161,284 L 162,285 L 163,285 L 164,286 L 164,295 L 168,295 L 169,296 L 169,317 L 169,295 L 167,295 L 166,294 L 166,284 L 165,284 L 164,285 L 162,285 L 161,284 L 160,284 L 159,283 L 159,235 L 160,234 L 160,232 L 161,231 L 162,232 L 162,234 L 163,235 L 163,236 L 162,237 L 161,236 L 161,237 L 162,238 L 162,239 L 163,240 L 163,242 L 164,243 L 164,245 L 165,246 L 165,248 L 166,249 L 166,250 L 169,253 L 169,254 L 170,255 L 178,255 L 180,253 L 181,253 L 181,252 L 182,251 L 186,251 L 187,252 L 188,252 L 190,254 L 191,254 L 192,255 L 193,255 L 194,256 L 195,256 L 196,257 L 199,257 L 200,256 L 202,256 L 203,255 L 205,255 L 206,256 L 207,256 L 210,259 L 211,259 L 215,263 L 216,263 L 219,266 L 220,266 L 223,269 L 223,305 L 225,307 L 225,309 L 226,310 L 226,311 L 229,311 L 227,311 L 225,309 L 225,269 L 227,267 L 227,266 L 229,264 L 230,264 L 231,265 L 231,320 L 231,315 L 232,314 L 233,315 L 233,320 L 233,271 L 234,270 L 235,270 L 236,271 L 240,271 L 241,272 L 244,272 L 245,273 L 248,273 L 250,271 L 251,271 L 254,268 L 255,268 L 256,267 L 257,268 L 257,284 L 256,285 L 253,285 L 253,290 L 252,291 L 251,290 L 251,284 L 251,290 L 250,291 L 249,291 L 248,292 L 246,292 L 245,293 L 245,302 L 244,303 L 243,303 L 242,302 L 243,301 L 243,300 L 243,301 L 242,302 L 240,302 L 240,308 L 239,309 L 236,309 L 236,310 L 235,311 L 235,312 L 236,311 L 236,310 L 237,309 L 239,309 L 240,310 L 240,320 L 240,303 L 241,302 L 242,303 L 242,320 L 242,304 L 243,303 L 245,303 L 245,293 L 246,292 L 248,292 L 249,291 L 253,291 L 253,286 L 254,285 L 256,285 L 257,284 L 258,284 L 259,283 L 259,267 L 258,266 L 261,263 L 262,263 L 263,262 L 264,262 L 266,260 L 267,260 L 268,259 L 269,259 L 278,268 L 278,270 L 279,271 L 279,273 L 280,273 L 282,275 L 283,275 L 286,278 L 287,278 L 291,282 L 292,282 L 302,292 L 304,292 L 305,293 L 308,293 L 309,294 L 311,294 L 312,295 L 315,295 L 316,296 L 318,296 L 319,297 L 321,297 L 322,298 L 325,298 L 326,299 L 328,299 L 329,300 L 331,300 L 332,299 L 333,299 L 334,300 L 333,301 L 336,301 L 336,300 L 335,301 L 334,300 L 334,299 L 335,298 L 335,293 L 335,298 L 334,299 L 332,299 L 331,298 L 330,298 L 329,297 L 326,297 L 325,298 L 322,298 L 321,297 L 322,296 L 324,296 L 322,296 L 321,295 L 319,295 L 318,294 L 316,294 L 315,293 L 312,293 L 311,292 L 309,292 L 308,291 L 305,291 L 298,284 L 297,284 L 292,279 L 291,279 L 292,280 L 293,280 L 302,289 L 303,289 L 305,291 L 304,292 L 303,292 L 302,291 L 301,291 L 292,282 L 291,282 L 289,280 L 289,279 L 288,279 L 287,278 L 286,278 L 283,275 L 282,275 L 279,272 L 279,271 L 280,270 L 283,273 L 284,273 L 287,276 L 288,276 L 289,277 L 288,276 L 289,275 L 289,273 L 289,275 L 288,276 L 287,275 L 286,275 L 284,273 L 283,273 L 280,270 L 280,268 L 279,267 L 279,265 L 271,257 L 267,257 L 266,258 L 265,258 L 263,260 L 262,260 L 261,261 L 260,261 L 259,260 L 259,251 L 260,250 L 274,250 L 273,249 L 274,248 L 275,248 L 276,249 L 276,250 L 288,250 L 289,251 L 289,253 L 289,250 L 288,249 L 289,248 L 293,248 L 294,249 L 293,250 L 292,250 L 291,251 L 291,263 L 290,264 L 290,265 L 291,266 L 291,270 L 290,271 L 291,272 L 291,277 L 291,266 L 292,265 L 291,266 L 290,265 L 290,264 L 291,263 L 291,251 L 292,250 L 326,250 L 325,249 L 326,248 L 327,248 L 328,249 L 328,250 L 342,250 L 340,250 L 339,249 L 340,248 L 342,248 L 258,248 L 257,249 L 257,262 L 257,249 L 258,248 L 259,249 L 259,260 L 260,261 L 259,262 L 260,261 L 261,261 L 262,260 L 263,260 L 265,258 L 266,258 L 267,257 L 271,257 L 277,263 L 277,264 L 279,266 L 279,267 L 278,268 L 274,264 L 274,263 L 270,259 L 268,259 L 267,260 L 266,260 L 264,262 L 263,262 L 262,263 L 261,263 L 260,264 L 259,264 L 259,265 L 258,266 L 257,266 L 256,265 L 257,264 L 256,264 L 255,265 L 254,265 L 251,268 L 250,268 L 248,270 L 247,270 L 246,271 L 245,271 L 244,270 L 241,270 L 240,269 L 236,269 L 235,268 L 234,268 L 233,267 L 233,263 L 232,263 L 231,262 L 228,262 L 225,265 L 228,262 L 231,262 L 232,263 L 231,264 L 229,264 L 225,268 L 220,263 L 219,263 L 215,259 L 214,259 L 210,255 L 209,255 L 207,253 L 203,253 L 202,254 L 200,254 L 199,255 L 197,255 L 196,254 L 195,254 L 194,253 L 193,253 L 191,251 L 190,251 L 189,250 L 187,250 L 186,251 L 182,251 L 181,250 L 180,250 L 177,253 L 172,253 L 169,250 L 169,249 L 167,247 L 167,246 L 166,245 L 166,243 L 165,242 L 165,240 L 164,239 L 164,237 L 163,236 L 163,235 L 162,234 L 162,232 L 161,231 L 161,212 L 158,209 L 158,208 L 155,205 L 155,203 L 154,202 L 154,200 L 153,199 L 153,197 L 152,196 L 152,194 L 151,193 L 151,192 L 150,191 L 150,190 L 148,188 L 148,187 L 147,186 L 147,185 L 144,182 Z" />
<path d="M 113,92 L 113,166 L 113,93 L 114,92 L 115,93 L 115,165 L 116,165 L 121,160 L 121,159 L 123,157 L 123,156 L 125,154 L 125,153 L 127,151 L 129,151 L 131,153 L 131,156 L 130,157 L 129,156 L 129,154 L 128,153 L 127,154 L 127,155 L 125,157 L 125,158 L 123,160 L 123,161 L 117,167 L 116,167 L 115,168 L 115,169 L 114,170 L 113,169 L 113,168 L 112,169 L 111,169 L 106,164 L 103,164 L 101,166 L 101,167 L 99,169 L 99,170 L 98,171 L 97,170 L 97,159 L 97,170 L 98,171 L 98,172 L 97,173 L 96,173 L 95,172 L 95,158 L 95,172 L 94,173 L 93,173 L 92,174 L 91,174 L 91,175 L 90,176 L 90,177 L 88,179 L 88,180 L 86,182 L 86,183 L 85,184 L 85,185 L 84,186 L 84,189 L 83,190 L 83,193 L 81,195 L 81,196 L 79,198 L 79,199 L 77,201 L 76,201 L 75,200 L 75,198 L 74,197 L 74,196 L 73,195 L 73,194 L 72,193 L 72,192 L 71,191 L 71,190 L 70,189 L 70,188 L 69,187 L 69,186 L 68,186 L 67,185 L 67,106 L 67,185 L 66,186 L 65,185 L 65,106 L 65,185 L 64,186 L 57,186 L 56,187 L 56,188 L 55,189 L 55,192 L 54,193 L 54,194 L 53,195 L 53,196 L 52,197 L 50,197 L 49,198 L 48,198 L 48,199 L 47,200 L 47,201 L 41,207 L 39,207 L 38,206 L 38,205 L 37,204 L 37,203 L 35,201 L 35,200 L 34,199 L 33,199 L 32,198 L 29,198 L 26,195 L 26,193 L 25,192 L 25,188 L 24,187 L 24,184 L 23,183 L 23,179 L 22,178 L 22,177 L 21,176 L 21,174 L 20,175 L 19,175 L 19,177 L 18,178 L 18,180 L 17,181 L 17,183 L 16,184 L 16,185 L 14,187 L 10,183 L 10,182 L 9,181 L 9,180 L 10,179 L 10,165 L 9,164 L 9,163 L 10,162 L 10,155 L 9,154 L 9,153 L 10,152 L 10,120 L 10,152 L 9,153 L 9,154 L 10,155 L 10,162 L 9,163 L 9,164 L 10,165 L 10,179 L 9,180 L 9,181 L 8,182 L 7,181 L 4,181 L 3,182 L 0,182 L 3,182 L 4,183 L 3,184 L 0,184 L 3,184 L 4,183 L 6,183 L 9,186 L 9,191 L 10,192 L 10,227 L 9,228 L 8,227 L 8,218 L 8,227 L 9,228 L 10,228 L 10,192 L 9,191 L 9,187 L 10,186 L 14,190 L 16,190 L 17,189 L 17,186 L 18,185 L 18,184 L 19,183 L 19,181 L 18,180 L 18,178 L 19,177 L 19,176 L 20,175 L 22,177 L 22,178 L 21,179 L 21,183 L 22,184 L 22,187 L 23,188 L 23,192 L 24,193 L 24,196 L 25,197 L 25,198 L 27,200 L 31,200 L 34,203 L 34,204 L 36,206 L 36,207 L 37,208 L 37,209 L 38,210 L 39,210 L 40,211 L 45,206 L 46,206 L 47,205 L 47,204 L 49,202 L 49,201 L 51,199 L 52,199 L 53,198 L 54,198 L 55,197 L 55,196 L 56,195 L 56,193 L 57,192 L 57,190 L 59,188 L 64,188 L 65,189 L 65,243 L 64,244 L 51,244 L 50,245 L 50,246 L 64,246 L 65,247 L 65,248 L 64,249 L 57,249 L 56,250 L 56,251 L 64,251 L 65,252 L 65,279 L 65,252 L 66,251 L 67,252 L 67,277 L 67,252 L 68,251 L 79,251 L 68,251 L 67,250 L 68,249 L 77,249 L 68,249 L 67,248 L 67,247 L 68,246 L 84,246 L 84,245 L 83,244 L 68,244 L 67,243 L 67,191 L 68,190 L 70,192 L 70,194 L 71,195 L 71,196 L 72,197 L 72,199 L 73,200 L 73,201 L 74,202 L 74,203 L 75,204 L 75,205 L 77,205 L 80,202 L 80,201 L 82,199 L 82,198 L 83,197 L 83,196 L 84,195 L 84,194 L 85,193 L 85,190 L 86,189 L 86,186 L 89,183 L 89,182 L 91,180 L 91,179 L 92,178 L 92,177 L 94,175 L 95,176 L 95,275 L 95,176 L 96,175 L 97,176 L 97,270 L 97,176 L 100,173 L 100,172 L 102,170 L 102,169 L 105,166 L 110,171 L 114,171 L 115,172 L 115,237 L 134,237 L 135,238 L 135,245 L 134,246 L 134,249 L 134,246 L 135,245 L 136,246 L 136,248 L 136,246 L 135,245 L 135,238 L 134,237 L 116,237 L 115,236 L 115,172 L 114,171 L 114,170 L 123,161 L 123,160 L 125,158 L 125,157 L 127,155 L 127,154 L 128,153 L 129,154 L 129,156 L 130,157 L 130,159 L 130,157 L 131,156 L 132,157 L 132,160 L 131,161 L 131,163 L 132,164 L 132,167 L 133,168 L 133,171 L 134,172 L 134,175 L 135,176 L 135,178 L 136,179 L 136,180 L 138,182 L 139,182 L 140,183 L 141,183 L 142,184 L 142,290 L 142,183 L 141,183 L 140,182 L 141,181 L 142,181 L 141,180 L 142,179 L 142,93 L 142,179 L 141,180 L 140,180 L 139,179 L 138,179 L 137,178 L 137,176 L 136,175 L 136,172 L 135,171 L 135,168 L 134,167 L 134,164 L 133,163 L 133,161 L 132,160 L 132,157 L 131,156 L 131,153 L 130,152 L 130,151 L 129,151 L 128,150 L 127,151 L 126,151 L 126,152 L 124,154 L 124,155 L 122,157 L 122,158 L 120,160 L 120,161 L 116,165 L 115,164 L 115,92 Z" />
<path d="M 203,89 L 203,91 L 205,91 L 205,89 Z" />
<path d="M 588,84 L 588,121 L 587,122 L 587,133 L 586,134 L 586,143 L 585,144 L 584,144 L 580,148 L 580,149 L 579,150 L 579,155 L 580,156 L 580,165 L 579,166 L 578,165 L 578,157 L 578,165 L 577,166 L 577,173 L 575,175 L 574,174 L 575,175 L 573,177 L 573,179 L 573,177 L 575,175 L 576,175 L 577,174 L 578,175 L 578,176 L 578,175 L 579,174 L 579,166 L 580,165 L 580,156 L 581,155 L 581,151 L 585,147 L 586,148 L 586,155 L 588,155 L 588,134 L 589,133 L 589,124 L 590,123 L 592,123 L 593,124 L 593,127 L 594,128 L 594,133 L 595,134 L 595,139 L 596,140 L 596,145 L 597,146 L 597,151 L 598,152 L 598,157 L 599,158 L 599,164 L 600,165 L 600,170 L 600,165 L 601,164 L 602,165 L 602,171 L 601,172 L 601,177 L 602,178 L 602,183 L 603,184 L 603,189 L 604,190 L 604,195 L 604,190 L 603,189 L 603,184 L 604,183 L 604,178 L 603,177 L 603,172 L 602,171 L 602,165 L 601,164 L 601,159 L 601,164 L 600,165 L 599,164 L 599,158 L 600,157 L 600,152 L 599,151 L 599,146 L 598,145 L 598,140 L 598,145 L 597,146 L 596,145 L 596,140 L 595,139 L 595,134 L 594,133 L 594,128 L 593,127 L 593,123 L 594,122 L 595,123 L 595,126 L 595,123 L 594,122 L 593,123 L 591,123 L 590,122 L 591,121 L 592,121 L 591,121 L 590,120 L 590,84 Z" />
<path d="M 531,84 L 530,85 L 530,86 L 530,85 Z" />
<path d="M 324,81 L 324,83 L 326,83 L 326,81 Z" />
<path d="M 241,79 L 241,81 L 242,81 L 241,80 L 242,79 L 250,79 L 251,80 L 249,82 L 244,82 L 249,82 L 250,83 L 248,85 L 244,85 L 242,83 L 242,84 L 243,84 L 244,85 L 248,85 L 249,84 L 250,84 L 250,82 L 251,81 L 251,79 Z" />
<path d="M 457,74 L 457,76 L 458,76 L 459,75 L 459,74 Z" />
<path d="M 538,73 L 536,75 L 536,76 L 534,78 L 534,79 L 533,80 L 534,79 L 534,78 L 536,76 L 536,75 Z" />
<path d="M 261,73 L 260,74 L 260,75 L 262,75 L 262,73 Z" />
<path d="M 22,72 L 22,74 L 24,74 L 24,72 Z" />
<path d="M 727,70 L 727,72 L 728,72 L 729,71 L 729,70 Z" />
<path d="M 543,67 L 539,71 L 543,67 L 544,68 Z" />
<path d="M 61,67 L 61,69 L 63,69 L 63,67 Z" />
<path d="M 126,65 L 126,67 L 127,68 L 127,69 L 128,70 L 130,70 L 133,67 L 132,66 L 132,65 Z" />
<path d="M 549,61 L 548,62 L 549,63 L 549,64 L 549,63 L 548,62 Z" />
<path d="M 175,61 L 175,63 L 176,63 L 175,62 L 176,61 Z" />
<path d="M 669,59 L 669,61 L 671,61 L 671,60 L 670,59 Z" />
<path d="M 397,56 L 397,58 L 399,58 L 399,56 Z" />
<path d="M 304,56 L 304,58 L 306,58 L 306,56 Z" />
<path d="M 557,55 L 555,57 L 557,55 L 558,55 Z" />
<path d="M 62,55 L 62,57 L 64,57 L 64,56 L 63,55 Z" />
<path d="M 485,52 L 485,54 L 487,54 L 487,52 Z" />
<path d="M 90,52 L 90,54 L 92,54 L 92,52 Z" />
<path d="M 568,50 L 567,51 L 565,51 L 564,52 L 565,51 L 567,51 L 568,50 L 569,50 Z" />
<path d="M 205,50 L 204,51 L 204,53 L 205,54 L 205,55 L 207,55 L 209,53 L 209,51 L 208,50 Z" />
<path d="M 76,50 L 76,51 L 78,51 L 78,50 L 77,51 Z" />
<path d="M 725,49 L 725,51 L 727,51 L 727,50 L 726,49 Z" />
<path d="M 405,47 L 405,49 L 407,49 L 407,47 Z" />
<path d="M 583,44 L 582,45 L 577,45 L 576,46 L 573,46 L 572,47 L 569,47 L 568,48 L 567,48 L 566,49 L 564,49 L 563,50 L 562,50 L 561,51 L 559,51 L 558,52 L 557,52 L 556,53 L 555,53 L 553,55 L 552,55 L 550,57 L 549,57 L 545,61 L 544,61 L 540,65 L 540,66 L 535,71 L 535,72 L 533,74 L 533,75 L 531,77 L 531,78 L 530,79 L 530,80 L 529,81 L 529,83 L 528,84 L 528,85 L 527,86 L 527,88 L 526,89 L 526,91 L 525,92 L 525,94 L 524,95 L 524,99 L 523,100 L 523,119 L 524,120 L 524,124 L 525,125 L 525,128 L 526,129 L 526,131 L 527,132 L 527,134 L 528,135 L 528,137 L 529,138 L 529,139 L 530,140 L 530,141 L 532,143 L 532,144 L 534,146 L 532,144 L 532,143 L 530,141 L 530,140 L 529,139 L 529,137 L 530,136 L 531,137 L 531,138 L 532,139 L 532,140 L 533,141 L 532,140 L 532,139 L 531,138 L 531,137 L 530,136 L 530,134 L 529,133 L 529,131 L 528,130 L 528,128 L 527,127 L 527,124 L 526,123 L 526,119 L 525,118 L 525,102 L 525,118 L 526,119 L 526,123 L 527,124 L 527,127 L 528,128 L 528,130 L 529,131 L 529,133 L 530,134 L 530,136 L 529,137 L 528,136 L 528,135 L 527,134 L 527,132 L 526,131 L 526,129 L 525,128 L 525,125 L 524,124 L 524,120 L 523,119 L 523,100 L 524,99 L 524,95 L 525,94 L 525,92 L 526,91 L 526,89 L 527,88 L 527,86 L 528,85 L 528,84 L 529,83 L 529,82 L 530,81 L 530,80 L 531,79 L 531,78 L 533,76 L 533,75 L 535,73 L 535,72 L 540,67 L 540,66 L 545,61 L 546,61 L 550,57 L 551,57 L 553,55 L 554,55 L 556,53 L 557,53 L 558,52 L 559,52 L 560,51 L 561,51 L 562,50 L 563,50 L 564,49 L 566,49 L 567,48 L 568,48 L 569,47 L 572,47 L 573,46 L 576,46 L 577,45 L 582,45 L 583,44 L 602,44 L 603,45 L 607,45 L 608,46 L 612,46 L 613,47 L 615,47 L 616,48 L 618,48 L 619,49 L 620,49 L 621,50 L 622,50 L 623,51 L 624,51 L 625,52 L 624,53 L 623,53 L 624,53 L 625,54 L 624,53 L 625,52 L 626,52 L 627,53 L 628,53 L 629,54 L 628,55 L 627,55 L 628,55 L 629,54 L 630,54 L 632,56 L 633,56 L 635,58 L 636,58 L 651,73 L 651,74 L 653,76 L 653,77 L 654,78 L 654,79 L 655,80 L 655,81 L 656,82 L 656,83 L 657,84 L 657,85 L 657,84 L 656,83 L 656,82 L 655,81 L 655,80 L 654,79 L 654,78 L 653,77 L 653,76 L 652,75 L 652,74 L 649,71 L 649,70 L 637,58 L 636,58 L 634,56 L 633,56 L 631,54 L 630,54 L 629,53 L 628,53 L 627,52 L 626,52 L 625,51 L 624,51 L 623,50 L 621,50 L 620,49 L 619,49 L 618,48 L 616,48 L 615,47 L 613,47 L 612,46 L 608,46 L 607,45 L 603,45 L 602,44 Z" />
<path d="M 240,44 L 239,45 L 240,46 L 240,47 L 241,48 L 241,49 L 243,49 L 245,47 L 245,44 L 245,47 L 243,49 L 242,49 L 240,47 L 240,46 L 239,45 Z" />
<path d="M 16,43 L 16,45 L 18,45 L 18,43 Z" />
<path d="M 741,41 L 741,43 L 743,43 L 743,41 Z" />
<path d="M 173,40 L 173,43 L 174,44 L 175,44 L 177,42 L 177,41 L 176,40 Z" />
<path d="M 135,39 L 135,41 L 137,41 L 137,39 Z" />
<path d="M 45,38 L 45,40 L 47,40 L 47,38 Z" />
<path d="M 107,37 L 107,39 L 109,39 L 109,37 Z" />
<path d="M 512,36 L 512,38 L 514,38 L 514,36 Z" />
<path d="M 424,32 L 424,34 L 426,34 L 426,33 L 425,32 Z" />
<path d="M 151,31 L 150,32 L 148,32 L 148,34 L 150,36 L 153,36 L 154,35 L 154,34 L 155,33 L 154,32 L 154,34 L 152,36 L 150,36 L 149,35 L 149,34 L 150,33 L 151,34 L 150,33 L 150,32 L 151,31 L 152,31 Z" />
<path d="M 669,30 L 669,31 L 670,32 L 671,32 L 670,32 L 669,31 Z" />
<path d="M 533,27 L 533,29 L 535,29 L 535,27 Z" />
<path d="M 38,25 L 38,27 L 40,27 L 40,25 Z" />
<path d="M 163,24 L 162,25 L 162,26 L 164,26 L 164,24 Z" />
</svg>
